<svg viewBox="0 0 900 1200" xmlns="http://www.w3.org/2000/svg" xmlns:c2pa="http://c2pa.org/manifest"><metadata><c2pa:manifest>AAAWgmp1bWIAAAAeanVtZGMycGEAEQAQgAAAqgA4m3EDYzJwYQAAABZcanVtYgAAAEdqdW1kYzJtYQARABCAAACqADibcQN1cm46YzJwYTphZTUyYjBmZS1kNjg3LTRiMjYtODkwMS03ZDRlMzEwZTczZjQAAAADl2p1bWIAAAApanVtZGMyYXMAEQAQgAAAqgA4m3EDYzJwYS5hc3NlcnRpb25zAAAAALxqdW1iAAAARGp1bWRjYm9yABEAEIAAAKoAOJtxE2MycGEuaW5ncmVkaWVudC52MwAAAAAYYzJzaAuG5S8nGG8QAfOilDZ86SwAAABwY2JvcqNpZGM6Zm9ybWF0bWltYWdlL3N2Zyt4bWxqaW5zdGFuY2VJRHgseG1wOmlpZDoxZjE5MjdiMC02NTEzLTQxMjQtODlhNC0xMmJkZTdhM2FjMTlscmVsYXRpb25zaGlwaHBhcmVudE9mAAAB4mp1bWIAAABBanVtZGNib3IAEQAQgAAAqgA4m3ETYzJwYS5hY3Rpb25zLnYyAAAAABhjMnNow9kx1TSrS3Fvu6/m8FzrlwAAAZljYm9yomdhY3Rpb25zgqJmYWN0aW9ua2MycGEub3BlbmVkanBhcmFtZXRlcnOha2luZ3JlZGllbnRzgaJjdXJseC1zZWxmI2p1bWJmPWMycGEuYXNzZXJ0aW9ucy9jMnBhLmluZ3JlZGllbnQudjNkaGFzaFggB5t5evBPpUFyXhOwrhd7kD1BLfm3ds8pyFx2/tH+LvSkZmFjdGlvbngdY29tLmFudGhyb3BpYy5jbGF1ZGUucHJvdmlkZWRqcGFyYW1ldGVyc6F4H2NvbS5hbnRocm9waWMub3JpZ2luLWNvbmZpZGVuY2VndW5rbm93bmtkZXNjcmlwdGlvbnhmQ2xhdWRlIHByb3ZpZGVkIHRoaXMgZmlsZSBhdCB0aGUgcmVxdWVzdCBvZiBhIHVzZXIgYW5kIG1heSBoYXZlIGNyZWF0ZWQgb3IgbW9kaWZpZWQgdGhlIGZpbGUgY29udGVudHMubXNvZnR3YXJlQWdlbnShZG5hbWVmQ2xhdWRlcmFsbEFjdGlvbnNJbmNsdWRlZPUAAADIanVtYgAAAEBqdW1kY2JvcgARABCAAACqADibcRNjMnBhLmhhc2guZGF0YQAAAAAYYzJzaHrK63maOMM6+0YljOZKsBwAAACAY2JvcqVjYWxnZnNoYTI1NmNwYWRNAAAAAAAAAAAAAAAAAGRoYXNoWCBD4CaQ3Vk4MMqxg1OK3c3ybXNTlOG/3wm60ji2ru7w02RuYW1lbmp1bWJmIG1hbmlmZXN0amV4Y2x1c2lvbnOBomVzdGFydBh+Zmxlbmd0aBkeBAAAAj5qdW1iAAAAJ2p1bWRjMmNsABEAEIAAAKoAOJtxA2MycGEuY2xhaW0udjIAAAACD2Nib3KlY2FsZ2ZzaGEyNTZpc2lnbmF0dXJleE1zZWxmI2p1bWJmPS9jMnBhL3VybjpjMnBhOmFlNTJiMGZlLWQ2ODctNGIyNi04OTAxLTdkNGUzMTBlNzNmNC9jMnBhLnNpZ25hdHVyZWppbnN0YW5jZUlEeCx4bXA6aWlkOmJhOGRmYWM3LTYxMjAtNGYwOC1iMGQyLTZkZmM2YjFmNmU3ZXJjcmVhdGVkX2Fzc2VydGlvbnODomN1cmx4LXNlbGYjanVtYmY9YzJwYS5hc3NlcnRpb25zL2MycGEuaW5ncmVkaWVudC52M2RoYXNoWCAHm3l68E+lQXJeE7CuF3uQPUEt+bd2zynIXHb+0f4u9KJjdXJseCpzZWxmI2p1bWJmPWMycGEuYXNzZXJ0aW9ucy9jMnBhLmFjdGlvbnMudjJkaGFzaFggRyS1B+BWMAspP7S01cP2/7t7dqOw3OCVx6qG7bGKo3OiY3VybHgpc2VsZiNqdW1iZj1jMnBhLmFzc2VydGlvbnMvYzJwYS5oYXNoLmRhdGFkaGFzaFgg9P4udYG0rug8bf9xdq6twsAvAyILXrXbNGjT6NztAa50Y2xhaW1fZ2VuZXJhdG9yX2luZm+jZG5hbWVvQW50aHJvcGljIEZpbGVzZ3ZlcnNpb25lMS4wLjBrc3BlY1ZlcnNpb25lMi40LjAAABA4anVtYgAAAChqdW1kYzJjcwARABCAAACqADibcQNjMnBhLnNpZ25hdHVyZQAAABAIY2JvctKEWQISogEmGCFZAgowggIGMIIBjaADAgECAhRA5aAK7sI50L64g/oGQgU9Z1UTADAKBggqhkjOPQQDAzBJMRcwFQYDVQQKEw5BbnRocm9waWMsIFBCQzEuMCwGA1UEAxMlQW50aHJvcGljIENvbnRlbnQgQ3JlZGVudGlhbHMgUm9vdCBDQTAeFw0yNjA4MDcxODQzNTZaFw0yODA4MDYxOTQzNTZaMEQxFzAVBgNVBAoTDkFudGhyb3BpYywgUEJDMSkwJwYDVQQDEyBBbnRocm9waWMgQ2xhdWRlIENvbnRlbnQgU2lnbmluZzBZMBMGByqGSM49AgEGCCqGSM49AwEHA0IABJh6CmvLUBgFFNU0vUKlOVtE6djd17L5SuwX0LemFisBM3dkd/3cyjxFA3Qo5S46fX0/ihY0VZ7mfb9KF703t5OjWDBWMA4GA1UdDwEB/wQEAwIHgDAVBgNVHSUEDjAMBgorBgEEAYPoXgIBMAwGA1UdEwEB/wQCMAAwHwYDVR0jBBgwFoAUzlHiBIFOZFsj+OPEz5o+nMHXXMIwCgYIKoZIzj0EAwMDZwAwZAIwMXMdFJ4BetLLVY7ORuE9noqbbAZOZn/aArXyTwFAZfKrPzxF2vPoJNf1+UCdg1XGAjBwX1zd9WGqYkqmL5SFqw1QySjr1zJfpJM9+1rdDwSPLMOPOjKuiXjoU/pUUeG9RwmhY3BhZFkNngAAAAAAAAAAAAAAAAAAAAAAAAAAAAAAAAAAAAAAAAAAAAAAAAAAAAAAAAAAAAAAAAAAAAAAAAAAAAAAAAAAAAAAAAAAAAAAAAAAAAAAAAAAAAAAAAAAAAAAAAAAAAAAAAAAAAAAAAAAAAAAAAAAAAAAAAAAAAAAAAAAAAAAAAAAAAAAAAAAAAAAAAAAAAAAAAAAAAAAAAAAAAAAAAAAAAAAAAAAAAAAAAAAAAAAAAAAAAAAAAAAAAAAAAAAAAAAAAAAAAAAAAAAAAAAAAAAAAAAAAAAAAAAAAAAAAAAAAAAAAAAAAAAAAAAAAAAAAAAAAAAAAAAAAAAAAAAAAAAAAAAAAAAAAAAAAAAAAAAAAAAAAAAAAAAAAAAAAAAAAAAAAAAAAAAAAAAAAAAAAAAAAAAAAAAAAAAAAAAAAAAAAAAAAAAAAAAAAAAAAAAAAAAAAAAAAAAAAAAAAAAAAAAAAAAAAAAAAAAAAAAAAAAAAAAAAAAAAAAAAAAAAAAAAAAAAAAAAAAAAAAAAAAAAAAAAAAAAAAAAAAAAAAAAAAAAAAAAAAAAAAAAAAAAAAAAAAAAAAAAAAAAAAAAAAAAAAAAAAAAAAAAAAAAAAAAAAAAAAAAAAAAAAAAAAAAAAAAAAAAAAAAAAAAAAAAAAAAAAAAAAAAAAAAAAAAAAAAAAAAAAAAAAAAAAAAAAAAAAAAAAAAAAAAAAAAAAAAAAAAAAAAAAAAAAAAAAAAAAAAAAAAAAAAAAAAAAAAAAAAAAAAAAAAAAAAAAAAAAAAAAAAAAAAAAAAAAAAAAAAAAAAAAAAAAAAAAAAAAAAAAAAAAAAAAAAAAAAAAAAAAAAAAAAAAAAAAAAAAAAAAAAAAAAAAAAAAAAAAAAAAAAAAAAAAAAAAAAAAAAAAAAAAAAAAAAAAAAAAAAAAAAAAAAAAAAAAAAAAAAAAAAAAAAAAAAAAAAAAAAAAAAAAAAAAAAAAAAAAAAAAAAAAAAAAAAAAAAAAAAAAAAAAAAAAAAAAAAAAAAAAAAAAAAAAAAAAAAAAAAAAAAAAAAAAAAAAAAAAAAAAAAAAAAAAAAAAAAAAAAAAAAAAAAAAAAAAAAAAAAAAAAAAAAAAAAAAAAAAAAAAAAAAAAAAAAAAAAAAAAAAAAAAAAAAAAAAAAAAAAAAAAAAAAAAAAAAAAAAAAAAAAAAAAAAAAAAAAAAAAAAAAAAAAAAAAAAAAAAAAAAAAAAAAAAAAAAAAAAAAAAAAAAAAAAAAAAAAAAAAAAAAAAAAAAAAAAAAAAAAAAAAAAAAAAAAAAAAAAAAAAAAAAAAAAAAAAAAAAAAAAAAAAAAAAAAAAAAAAAAAAAAAAAAAAAAAAAAAAAAAAAAAAAAAAAAAAAAAAAAAAAAAAAAAAAAAAAAAAAAAAAAAAAAAAAAAAAAAAAAAAAAAAAAAAAAAAAAAAAAAAAAAAAAAAAAAAAAAAAAAAAAAAAAAAAAAAAAAAAAAAAAAAAAAAAAAAAAAAAAAAAAAAAAAAAAAAAAAAAAAAAAAAAAAAAAAAAAAAAAAAAAAAAAAAAAAAAAAAAAAAAAAAAAAAAAAAAAAAAAAAAAAAAAAAAAAAAAAAAAAAAAAAAAAAAAAAAAAAAAAAAAAAAAAAAAAAAAAAAAAAAAAAAAAAAAAAAAAAAAAAAAAAAAAAAAAAAAAAAAAAAAAAAAAAAAAAAAAAAAAAAAAAAAAAAAAAAAAAAAAAAAAAAAAAAAAAAAAAAAAAAAAAAAAAAAAAAAAAAAAAAAAAAAAAAAAAAAAAAAAAAAAAAAAAAAAAAAAAAAAAAAAAAAAAAAAAAAAAAAAAAAAAAAAAAAAAAAAAAAAAAAAAAAAAAAAAAAAAAAAAAAAAAAAAAAAAAAAAAAAAAAAAAAAAAAAAAAAAAAAAAAAAAAAAAAAAAAAAAAAAAAAAAAAAAAAAAAAAAAAAAAAAAAAAAAAAAAAAAAAAAAAAAAAAAAAAAAAAAAAAAAAAAAAAAAAAAAAAAAAAAAAAAAAAAAAAAAAAAAAAAAAAAAAAAAAAAAAAAAAAAAAAAAAAAAAAAAAAAAAAAAAAAAAAAAAAAAAAAAAAAAAAAAAAAAAAAAAAAAAAAAAAAAAAAAAAAAAAAAAAAAAAAAAAAAAAAAAAAAAAAAAAAAAAAAAAAAAAAAAAAAAAAAAAAAAAAAAAAAAAAAAAAAAAAAAAAAAAAAAAAAAAAAAAAAAAAAAAAAAAAAAAAAAAAAAAAAAAAAAAAAAAAAAAAAAAAAAAAAAAAAAAAAAAAAAAAAAAAAAAAAAAAAAAAAAAAAAAAAAAAAAAAAAAAAAAAAAAAAAAAAAAAAAAAAAAAAAAAAAAAAAAAAAAAAAAAAAAAAAAAAAAAAAAAAAAAAAAAAAAAAAAAAAAAAAAAAAAAAAAAAAAAAAAAAAAAAAAAAAAAAAAAAAAAAAAAAAAAAAAAAAAAAAAAAAAAAAAAAAAAAAAAAAAAAAAAAAAAAAAAAAAAAAAAAAAAAAAAAAAAAAAAAAAAAAAAAAAAAAAAAAAAAAAAAAAAAAAAAAAAAAAAAAAAAAAAAAAAAAAAAAAAAAAAAAAAAAAAAAAAAAAAAAAAAAAAAAAAAAAAAAAAAAAAAAAAAAAAAAAAAAAAAAAAAAAAAAAAAAAAAAAAAAAAAAAAAAAAAAAAAAAAAAAAAAAAAAAAAAAAAAAAAAAAAAAAAAAAAAAAAAAAAAAAAAAAAAAAAAAAAAAAAAAAAAAAAAAAAAAAAAAAAAAAAAAAAAAAAAAAAAAAAAAAAAAAAAAAAAAAAAAAAAAAAAAAAAAAAAAAAAAAAAAAAAAAAAAAAAAAAAAAAAAAAAAAAAAAAAAAAAAAAAAAAAAAAAAAAAAAAAAAAAAAAAAAAAAAAAAAAAAAAAAAAAAAAAAAAAAAAAAAAAAAAAAAAAAAAAAAAAAAAAAAAAAAAAAAAAAAAAAAAAAAAAAAAAAAAAAAAAAAAAAAAAAAAAAAAAAAAAAAAAAAAAAAAAAAAAAAAAAAAAAAAAAAAAAAAAAAAAAAAAAAAAAAAAAAAAAAAAAAAAAAAAAAAAAAAAAAAAAAAAAAAAAAAAAAAAAAAAAAAAAAAAAAAAAAAAAAAAAAAAAAAAAAAAAAAAAAAAAAAAAAAAAAAAAAAAAAAAAAAAAAAAAAAAAAAAAAAAAAAAAAAAAAAAAAAAAAAAAAAAAAAAAAAAAAAAAAAAAAAAAAAAAAAAAAAAAAAAAAAAAAAAAAAAAAAAAAAAAAAAAAAAAAAAAAAAAAAAAAAAAAAAAAAAAAAAAAAAAAAAAAAAAAAAAAAAAAAAAAAAAAAAAAAAAAAAAAAAAAAAAAAAAAAAAAAAAAAAAAAAAAAAAAAAAAAAAAAAAAAAAAAAAAAAAAAAAAAAAAAAAAAAAAAAAAAAAAAAAAAAAAAAAAAAAAAAAAAAAAAAAAAAAAAAAAAAAAAAAAAAAAAAAAAAAAAAAAAAAAAAAAAAAAAAAAAAAAAAAAAAAAAAAAAAAAAAAAAAAAAAAAAAAAAAAAAAAAAAAAAAAAAAAAAAAAAAAAAAAAAAAAAAAAAAAAAAAAAAAAAAAAAAAAAAAAAAAAAAAAAAAAAAAAAAAAAAAAAAAAAAAAAAAAAAAAAAAAAAAAAAAAAAAAAAAAAAAAAAAAAAAAAAAAAAAAAAAAAAAAAAAAAAAAAAAAAAAAAAAAAAAAAAAAAAAAAAAAAAAAAAAAAAAAAAAAAAAAAAAAAAAAAAAAAAAAAAAAAAAAAAAAAAAAAAAAAAAAAAAAAAAAAAAAAAAAAAAAAAAAAAAAAAAAAAAAAAAAAAAAAAAAAAAAAAAAAAAAAAAAAAAAAAAAAAAAAAAAAAAAAAAAAAAAAAAAAAAAAAAAAAAAAAAAAAAAAAAAAAAAAAAAAAAAAAAAAAAAAAAAAAAAAAAAAAAAAAAAAAAAAAAAAAAAAAAAAAAAAAAAAAAAAAAAAAAAAAAAAAAAAAAAAAAAAAAAAAAAAAAAAAAAAAAAAAAAAAAAAAAAAAAAAAAAAAAAAAAAAAAAAAAAAAAAAAAAAAAAAAAAAAAAAAAAAAAAAAAAAAAAAAAAAAAAAAAAAAAAAAAAAAAAAAAAAAAAAAAAAAAAAAAAAAAAAAAAAAAAAAAAAAAAAAAAAAAAAAAAAAAAAAAAAAAAAAAAAAAAAAAAAAAAAAAAAAAAAAAAAAAAAAAAAAAAAAAAAAAAAAAAAAAAAAAAAAAAAAAAAAAAAAAAAAAAAAAAAAAAAAAAAAAAAAAAAAAAAAAAAAAAAAAAAAAAAAAAAAAAAAAAAAAAAAAAAAAAAAAAAAAAAAAAAAAAAAAAAAAAAAAAAAAAAAAAAAAAAAAAAAAAAAAAAAAAAAAAAAAAAAAAAAAAAAAAAAAAAAAAAAAAAAAAAAAAAAAAAAAAAAAAAAAAAAAAAAAAAAAAAAAAAAAAAAAAAAAAAAAAAAAAAAAAAAAAAAAAAAAAAAAAAAAAAAAAAAAAAAAAAAAAAAAAAAAAAAAAAAAAAAAAAAAAAAAAAAAAAAAAAAAAAAAAAAAAAAAAAAAAAAAAAAAAAAAAAAAAAAAAAAAAAAAAAAAAAAAAAAAAAAAAAAAAAAAAAAAAAAAAAAAAAAAAAAAAAAAAAAAAAAAAAAAAAAAAAAAAAAAAAAAAPZYQJ1sJcJF4ikvNRSPK8YjFTtbGevQ+2PJtzUDyMpp9IqcAAO8kNcotrvQ7RoFc1P/Doe1MNh4XhupZ9kdPo+htnY=</c2pa:manifest></metadata>
  <defs>
    <radialGradient id="bgGlow" cx="50%" cy="34%" r="70%">
      <stop offset="0%" stop-color="#0d0104"/>
      <stop offset="55%" stop-color="#050002"/>
      <stop offset="100%" stop-color="#000000"/>
    </radialGradient>

    <linearGradient id="gold" x1="0%" y1="0%" x2="100%" y2="100%">
      <stop offset="0%" stop-color="#fff9e0"/>
      <stop offset="25%" stop-color="#ffd863"/>
      <stop offset="55%" stop-color="#c98f18"/>
      <stop offset="80%" stop-color="#6e4408"/>
      <stop offset="100%" stop-color="#241402"/>
    </linearGradient>

    <linearGradient id="goldEdge" x1="0%" y1="0%" x2="0%" y2="100%">
      <stop offset="0%" stop-color="#fffaea"/>
      <stop offset="50%" stop-color="#e8b64a"/>
      <stop offset="100%" stop-color="#7a5410"/>
    </linearGradient>

    <radialGradient id="slimeCore" cx="38%" cy="30%" r="70%">
      <stop offset="0%" stop-color="#9a1a2a"/>
      <stop offset="30%" stop-color="#6e0f1d"/>
      <stop offset="60%" stop-color="#3d0812"/>
      <stop offset="85%" stop-color="#1a0308"/>
      <stop offset="100%" stop-color="#080102"/>
    </radialGradient>

    <radialGradient id="slimeHot" cx="35%" cy="25%" r="55%">
      <stop offset="0%" stop-color="#ff8272"/>
      <stop offset="40%" stop-color="#c2262f"/>
      <stop offset="100%" stop-color="#3d0208" stop-opacity="0"/>
    </radialGradient>

    <radialGradient id="wetHighlight" cx="50%" cy="50%" r="50%">
      <stop offset="0%" stop-color="#ffffff" stop-opacity="0.9"/>
      <stop offset="40%" stop-color="#ffd9d0" stop-opacity="0.3"/>
      <stop offset="100%" stop-color="#ffffff" stop-opacity="0"/>
    </radialGradient>

    <linearGradient id="veinRed" x1="0%" y1="0%" x2="100%" y2="100%">
      <stop offset="0%" stop-color="#ff4d4d" stop-opacity="0.7"/>
      <stop offset="100%" stop-color="#4a0509" stop-opacity="0.2"/>
    </linearGradient>

    <linearGradient id="drool" x1="0%" y1="0%" x2="0%" y2="100%">
      <stop offset="0%" stop-color="#8a0f1f"/>
      <stop offset="55%" stop-color="#530814"/>
      <stop offset="100%" stop-color="#1c0208"/>
    </linearGradient>

    <radialGradient id="vignetteDark" cx="50%" cy="42%" r="72%">
      <stop offset="0%" stop-color="#000000" stop-opacity="0"/>
      <stop offset="60%" stop-color="#000000" stop-opacity="0"/>
      <stop offset="100%" stop-color="#000000" stop-opacity="0.9"/>
    </radialGradient>

    <filter id="softBlur" x="-60%" y="-60%" width="220%" height="220%">
      <feGaussianBlur stdDeviation="10"/>
    </filter>
    <filter id="bigBlur" x="-100%" y="-100%" width="300%" height="300%">
      <feGaussianBlur stdDeviation="34"/>
    </filter>
    <filter id="tinyBlur" x="-60%" y="-60%" width="220%" height="220%">
      <feGaussianBlur stdDeviation="3"/>
    </filter>
    <filter id="grain">
      <feTurbulence type="fractalNoise" baseFrequency="0.9" numOctaves="2" stitchTiles="stitch" result="noise"/>
      <feColorMatrix in="noise" type="matrix" values="0 0 0 0 0  0 0 0 0 0  0 0 0 0 0  0 0 0 0.05 0"/>
    </filter>
    <filter id="goo">
      <feTurbulence type="fractalNoise" baseFrequency="0.015 0.04" numOctaves="2" seed="7" result="n"/>
      <feDisplacementMap in="SourceGraphic" in2="n" scale="14"/>
    </filter>
  </defs>

  <rect width="900" height="1200" fill="url(#bgGlow)"/>
  <rect width="900" height="1200" filter="url(#grain)"/>

  <!-- faint embers -->
  <g opacity="0.3">
    <circle cx="140" cy="200" r="1.6" fill="#a4111a"/>
    <circle cx="760" cy="260" r="1.6" fill="#a4111a"/>
    <circle cx="120" cy="900" r="1.4" fill="#6e4408"/>
    <circle cx="780" cy="960" r="1.6" fill="#a4111a"/>
  </g>

  <!-- ambient red glow behind the necklace -->
  <ellipse cx="450" cy="560" rx="330" ry="380" fill="#5c0e28" opacity="0.35" filter="url(#bigBlur)"/>

  <!-- ============ THE NECKLACE ============ -->
  <g transform="translate(450,470)">

    <!-- chain -->
    <path d="M -260 -240 C -180 -80, -90 20, 0 30 C 90 20, 180 -80, 260 -240"
          fill="none" stroke="url(#gold)" stroke-width="10" stroke-linecap="round"/>
    <path d="M -260 -240 C -180 -80, -90 20, 0 30 C 90 20, 180 -80, 260 -240"
          fill="none" stroke="#fff3c4" stroke-width="2" stroke-linecap="round" opacity="0.5"/>
    <g opacity="0.9">
      <ellipse cx="-235" cy="-225" rx="8" ry="12" fill="none" stroke="url(#goldEdge)" stroke-width="4"/>
      <ellipse cx="-190" cy="-160" rx="8" ry="12" fill="none" stroke="url(#goldEdge)" stroke-width="4" transform="rotate(30 -190 -160)"/>
      <ellipse cx="-140" cy="-100" rx="8" ry="12" fill="none" stroke="url(#goldEdge)" stroke-width="4" transform="rotate(50 -140 -100)"/>
      <ellipse cx="-85" cy="-45" rx="8" ry="12" fill="none" stroke="url(#goldEdge)" stroke-width="4" transform="rotate(68 -85 -45)"/>
      <ellipse cx="235" cy="-225" rx="8" ry="12" fill="none" stroke="url(#goldEdge)" stroke-width="4"/>
      <ellipse cx="190" cy="-160" rx="8" ry="12" fill="none" stroke="url(#goldEdge)" stroke-width="4" transform="rotate(-30 190 -160)"/>
      <ellipse cx="140" cy="-100" rx="8" ry="12" fill="none" stroke="url(#goldEdge)" stroke-width="4" transform="rotate(-50 140 -100)"/>
      <ellipse cx="85" cy="-45" rx="8" ry="12" fill="none" stroke="url(#goldEdge)" stroke-width="4" transform="rotate(-68 85 -45)"/>
    </g>

    <!-- ornate crown bail -->
    <g transform="translate(0,20)">
      <path d="M -34 -10 L -20 -32 L -8 -14 L 0 -38 L 8 -14 L 20 -32 L 34 -10 L 22 0 L 0 -6 L -22 0 Z"
            fill="url(#gold)" stroke="url(#goldEdge)" stroke-width="1.5"/>
      <circle cx="0" cy="-28" r="4" fill="#a4111a"/>
    </g>

    <!-- gothic cage setting: gold ribs that CONTAIN the slime, not smooth bezel -->
    <g transform="translate(0,30)">

      <!-- outer gold frame (like a birdcage / reliquary holding the flesh) -->
      <path d="M 0 0
               C 70 5, 125 55, 125 130
               C 125 210, 75 260, 0 300
               C -75 260, -125 210, -125 130
               C -125 55, -70 5, 0 0 Z"
            fill="#0a0002" stroke="url(#gold)" stroke-width="10"/>

      <!-- the trapped gluttonous slime, heart-shaped, bulging past the gold ribs -->
      <g filter="url(#goo)">
        <!-- bi-lobed heart-like mass -->
        <path d="M 0 40
                 C -25 5, -75 5, -100 45
                 C -122 82, -108 115, -70 140
                 C -100 165, -100 205, -70 240
                 C -35 280, -5 300, 0 315
                 C 5 300, 35 280, 70 240
                 C 100 205, 100 165, 70 140
                 C 108 115, 122 82, 100 45
                 C 75 5, 25 5, 0 40 Z"
              fill="url(#slimeCore)"/>
        <!-- twin lobe hot cores, like two chambers pulsing -->
        <ellipse cx="-42" cy="90" rx="38" ry="46" fill="url(#slimeHot)" opacity="0.9"/>
        <ellipse cx="42" cy="90" rx="38" ry="46" fill="url(#slimeHot)" opacity="0.9"/>
        <ellipse cx="0" cy="210" rx="42" ry="60" fill="url(#slimeHot)" opacity="0.6"/>

        <!-- vein network crawling across the surface -->
        <g stroke="url(#veinRed)" stroke-width="2.5" fill="none" opacity="0.8">
          <path d="M -90 60 C -70 90, -55 110, -30 130"/>
          <path d="M 90 60 C 70 90, 55 110, 30 130"/>
          <path d="M -60 150 C -40 180, -20 210, 0 245"/>
          <path d="M 60 150 C 40 180, 20 210, 0 245"/>
          <path d="M -20 130 C -5 160, 5 160, 20 130"/>
          <path d="M -10 250 C -2 270, 2 270, 10 250"/>
        </g>

        <!-- suspended half-digested fragments inside the flesh -->
        <circle cx="-55" cy="70" r="6" fill="#1a0a02" opacity="0.55"/>
        <circle cx="50" cy="105" r="5" fill="#1a0a02" opacity="0.5"/>
        <circle cx="-15" cy="230" r="6" fill="#1a0a02" opacity="0.5"/>
        <path d="M 15 55 L 25 75 L 8 78 Z" fill="#c9d2da" opacity="0.3"/>

        <!-- wet glossy highlights, like fresh moist tissue -->
        <ellipse cx="-55" cy="55" rx="20" ry="28" fill="url(#wetHighlight)" transform="rotate(-20 -55 55)"/>
        <ellipse cx="48" cy="55" rx="16" ry="22" fill="url(#wetHighlight)" transform="rotate(15 48 55)"/>
        <ellipse cx="0" cy="255" rx="14" ry="20" fill="url(#wetHighlight)"/>
        <ellipse cx="-20" cy="150" rx="10" ry="14" fill="url(#wetHighlight)" opacity="0.6"/>

        <!-- central cleft between the two lobes, deep and dark -->
        <path d="M 0 40 C -10 70, -10 110, 0 145 C 10 110, 10 70, 0 40 Z" fill="#08000a" opacity="0.6"/>
      </g>

      <!-- rows of small hungry teeth peeking from the fold on the left side -->
      <g transform="translate(-95,120) rotate(8)">
        <path d="M -6 -18 L 0 0 L 6 -18 Z" fill="#f2e9dc"/>
        <path d="M 4 -20 L 10 -1 L 16 -20 Z" fill="#e8dcc8"/>
        <path d="M -16 -20 L -10 -1 L -4 -20 Z" fill="#e8dcc8"/>
        <path d="M -22 -16 L -17 0 L -12 -17 Z" fill="#dcd0b8" opacity="0.9"/>
        <path d="M 12 -17 L 17 0 L 22 -16 Z" fill="#dcd0b8" opacity="0.9"/>
        <!-- dark gumline they emerge from -->
        <path d="M -24 -14 C -10 -24, 10 -24, 24 -14 L 22 -6 C 8 -14, -8 -14, -22 -6 Z" fill="#3d0812" opacity="0.85"/>
      </g>

      <!-- gold ribs overlapping the bulging flesh, "caging" it -->
      <g stroke="url(#goldEdge)" stroke-width="7" fill="none" stroke-linecap="round">
        <path d="M 0 5 C 55 20, 95 70, 96 135 C 97 205, 55 245, 0 275"/>
        <path d="M 0 5 C -55 20, -95 70, -96 135 C -97 205, -55 245, 0 275"/>
        <path d="M -122 100 C -60 80, 60 80, 122 100"/>
        <path d="M -118 190 C -55 210, 55 210, 118 190"/>
      </g>
      <!-- rivets where ribs cross the frame -->
      <g fill="url(#gold)" stroke="url(#goldEdge)" stroke-width="1">
        <circle cx="-122" cy="100" r="6"/>
        <circle cx="122" cy="100" r="6"/>
        <circle cx="-118" cy="190" r="6"/>
        <circle cx="118" cy="190" r="6"/>
        <circle cx="0" cy="6" r="6"/>
      </g>

      <!-- a single lidless eye glaring from within the lower lobe -->
      <g transform="translate(0,205)">
        <ellipse cx="0" cy="0" rx="26" ry="18" fill="#0a0002"/>
        <ellipse cx="0" cy="0" rx="26" ry="18" fill="url(#slimeHot)" opacity="0.9"/>
        <path d="M 0 -13 C 4 -3, 4 3, 0 13 C -4 3, -4 -3, 0 -13 Z" fill="#000000"/>
        <ellipse cx="-8" cy="-6" rx="4" ry="3" fill="#ffffff" opacity="0.5"/>
      </g>

      <!-- filigree accents on the frame -->
      <g stroke="url(#goldEdge)" stroke-width="2.5" fill="none" opacity="0.9">
        <path d="M -125 130 C -150 128, -160 105, -150 85"/>
        <path d="M 125 130 C 150 128, 160 105, 150 85"/>
        <circle cx="-150" cy="82" r="5" fill="url(#gold)" stroke="none"/>
        <circle cx="150" cy="82" r="5" fill="url(#gold)" stroke="none"/>
      </g>
    </g>

    <!-- ============ DROOL: dripping from the heart of the pendant ============ -->
    <g transform="translate(0,330)">
      <!-- thick strand still attached, sagging under its own weight -->
      <path d="M -8 0 C -18 40, 14 70, 6 115 C -2 150, 10 175, 2 205
               C 10 205, 20 175, 12 150 C 22 115, -6 80, 4 45
               C 10 25, 6 8, 8 0 Z"
            fill="url(#drool)"/>
      <path d="M -8 0 C -18 40, 14 70, 6 115 C -2 150, 10 175, 2 205"
            fill="none" stroke="#a4111a" stroke-width="1.5" opacity="0.5"/>

      <!-- a bead about to detach -->
      <ellipse cx="4" cy="230" rx="9" ry="13" fill="url(#drool)"/>
      <ellipse cx="1" cy="226" rx="3" ry="4" fill="#c2140f" opacity="0.6"/>

      <!-- a second thinner drip -->
      <path d="M 45 -30 C 40 10, 55 35, 48 70 C 44 90, 52 100, 47 115"
            fill="none" stroke="url(#drool)" stroke-width="6" stroke-linecap="round" opacity="0.85"/>
      <circle cx="47" cy="122" r="5" fill="url(#drool)"/>

      <path d="M -50 -20 C -46 15, -58 30, -50 55"
            fill="none" stroke="url(#drool)" stroke-width="5" stroke-linecap="round" opacity="0.75"/>
      <circle cx="-50" cy="60" r="4" fill="url(#drool)"/>
    </g>

    <!-- pooling stain far below, on the ground the necklace rests near -->
    <ellipse cx="10" cy="605" rx="70" ry="16" fill="#22040c" opacity="0.5" filter="url(#softBlur)"/>

    <!-- glow radiating from the trapped flesh -->
    <ellipse cx="0" cy="150" rx="160" ry="180" fill="#a4111a" opacity="0.22" filter="url(#bigBlur)"/>
  </g>

  <rect x="0" y="0" width="900" height="1200" fill="url(#vignetteDark)"/>
</svg>
